<?xml version="1.0" standalone="no"?>
<!DOCTYPE svg PUBLIC "-//W3C//DTD SVG 20010904//EN"
 "http://www.w3.org/TR/2001/REC-SVG-20010904/DTD/svg10.dtd">
<svg version="1.0" xmlns="http://www.w3.org/2000/svg"
 width="1024.000000pt" height="1024.000000pt" viewBox="0 0 1024.000000 1024.000000"
 preserveAspectRatio="xMidYMid meet">

<g transform="translate(0.000000,1024.000000) scale(0.100000,-0.100000)"
fill="#000000" stroke="none">
<path d="M4945 8089 c-598 -29 -1191 -254 -1675 -637 -138 -109 -420 -397
-522 -532 -314 -419 -500 -866 -579 -1385 -35 -231 -28 -642 16 -900 52 -309
129 -546 270 -830 146 -296 326 -547 559 -781 461 -461 1017 -742 1676 -846
127 -20 181 -23 430 -22 261 0 299 2 450 27 532 87 1008 298 1409 624 l103 85
252 -249 c290 -288 304 -298 431 -298 67 0 88 5 131 27 66 34 128 106 150 170
21 63 16 177 -11 233 -11 25 -116 138 -278 301 l-259 262 102 153 c272 410
437 884 481 1380 16 178 6 492 -21 674 -66 448 -228 867 -477 1238 -215 320
-511 613 -828 822 -366 241 -737 385 -1170 454 -118 19 -183 24 -420 34 -38 2
-137 0 -220 -4z m470 -194 c687 -79 1287 -383 1753 -888 401 -435 640 -953
718 -1554 24 -180 24 -528 0 -688 -64 -441 -209 -830 -440 -1179 l-78 -118
-99 98 -99 99 0 1470 c0 1636 4 1540 -70 1693 -72 151 -225 274 -395 317 -52
13 -255 15 -1585 15 -1477 0 -1528 -1 -1595 -19 -202 -56 -370 -223 -424 -421
-21 -74 -21 -92 -21 -1597 0 -1059 3 -1538 11 -1575 6 -29 29 -91 51 -136 75
-158 223 -276 404 -322 75 -19 117 -20 1573 -20 1605 0 1564 -1 1678 50 l48
22 53 -58 c29 -32 51 -61 50 -65 -6 -16 -180 -149 -290 -222 -347 -230 -723
-373 -1151 -438 -189 -30 -569 -32 -752 -5 -324 47 -617 137 -886 272 -747
374 -1292 1070 -1473 1879 -45 199 -57 312 -63 557 -6 268 3 384 47 608 225
1134 1145 2021 2285 2205 233 37 530 45 750 20z m415 -1173 c0 -289 2 -341 16
-360 l15 -22 370 0 369 0 0 -531 c0 -421 -3 -530 -12 -526 -180 79 -293 107
-453 114 -151 6 -261 -9 -403 -57 l-90 -30 -683 0 c-621 0 -684 -1 -701 -17
-22 -20 -23 -46 -2 -67 14 -14 83 -16 612 -16 l597 -1 -50 -42 c-70 -58 -158
-153 -202 -214 l-36 -53 -449 0 c-435 0 -449 -1 -468 -20 -23 -23 -24 -33 -10
-61 10 -18 26 -19 435 -19 234 0 425 -3 425 -7 0 -5 -13 -42 -29 -83 -16 -41
-37 -110 -47 -152 l-18 -78 -377 0 c-370 0 -379 0 -389 -20 -15 -28 -3 -59 27
-71 13 -5 180 -9 377 -9 l353 0 6 -117 c5 -104 34 -255 62 -325 7 -17 -22 -18
-519 -18 l-526 0 0 1570 0 1570 900 0 900 0 0 -338z m665 -253 l30 -29 -293 0
-292 0 0 276 0 275 263 -247 c144 -136 275 -260 292 -275z m-2565 -1191 c0
-1309 1 -1423 17 -1440 15 -17 47 -18 599 -18 l584 0 19 -37 c20 -39 70 -109
129 -182 l34 -41 -886 0 -886 0 0 1570 0 1570 195 0 195 0 0 -1422z m2405 -8
c306 -82 559 -310 671 -605 192 -510 -74 -1086 -587 -1269 -126 -45 -232 -60
-383 -53 -239 10 -447 100 -620 266 -216 208 -319 466 -303 765 18 352 231
672 547 826 94 45 189 76 277 90 95 15 306 4 398 -20z m385 -56 c0 -8 -4 -12
-10 -9 -5 3 -10 13 -10 21 0 8 5 12 10 9 6 -3 10 -13 10 -21z m1223 -2487 c25
-46 22 -132 -6 -182 -30 -53 -93 -96 -151 -102 -93 -11 -92 -12 -609 505
l-477 477 64 49 c62 46 143 131 196 203 l24 33 470 -476 c259 -262 479 -490
489 -507z"/>
<path d="M4256 6524 c-21 -21 -20 -47 2 -67 17 -16 80 -17 696 -17 448 0 684
4 697 10 22 12 26 59 7 78 -9 9 -178 12 -699 12 -612 0 -689 -2 -703 -16z"/>
<path d="M4256 6114 c-21 -21 -20 -47 2 -67 17 -16 80 -17 703 -17 520 0 688
3 697 12 7 7 12 24 12 38 0 14 -5 31 -12 38 -9 9 -178 12 -699 12 -612 0 -689
-2 -703 -16z"/>
<path d="M4257 5702 c-21 -23 -22 -46 -1 -66 14 -14 115 -16 969 -16 854 0
955 2 969 16 21 21 20 47 -2 67 -17 16 -99 17 -969 17 -908 0 -951 -1 -966
-18z"/>
<path d="M5965 5154 c-131 -21 -286 -89 -399 -175 -128 -98 -239 -265 -289
-437 -32 -111 -32 -333 0 -444 68 -234 229 -429 439 -532 132 -64 209 -81 374
-81 122 0 158 4 225 23 96 28 223 94 305 158 152 119 270 325 301 526 14 89 6
259 -16 343 -25 92 -98 234 -162 314 -98 124 -282 244 -438 286 -60 16 -281
28 -340 19z m273 -110 c42 -8 118 -35 167 -59 474 -226 570 -852 186 -1207
-85 -78 -172 -131 -276 -165 -72 -24 -95 -27 -225 -27 -129 0 -153 3 -222 26
-124 41 -203 92 -304 192 -140 141 -201 279 -211 476 -18 340 183 633 512 745
109 37 250 44 373 19z"/>
</g>
</svg>
